#tb 0: 1/25
#media_type 0: video
#codec_id 0: rawvideo
#dimensions 0: 176x288
#sar 0: 0/1
0,          0,          0,        1,   152064, 0x7ec436b3
0,          1,          1,        1,   152064, 0x6f113e26
0,          2,          2,        1,   152064, 0x1045031f
0,          3,          3,        1,   152064, 0xa1d6ac74
0,          4,          4,        1,   152064, 0x6275cdd2
